<?xml version="1.0" encoding="UTF-8" standalone="no"?>
<svg
   width="100"
   height="100"
   version="1.1"
   id="svg49"
   sodipodi:docname=".source.svg"
   inkscape:version="1.1.2 (0a00cf5339, 2022-02-04, custom)"
   xmlns:inkscape="http://www.inkscape.org/namespaces/inkscape"
   xmlns:sodipodi="http://sodipodi.sourceforge.net/DTD/sodipodi-0.dtd"
   xmlns="http://www.w3.org/2000/svg"
   xmlns:svg="http://www.w3.org/2000/svg">
  <sodipodi:namedview
     id="namedview51"
     pagecolor="#ffffff"
     bordercolor="#666666"
     borderopacity="1.0"
     inkscape:pageshadow="2"
     inkscape:pageopacity="0.0"
     inkscape:pagecheckerboard="0"
     showgrid="false"
     inkscape:zoom="6.3"
     inkscape:cx="49.761905"
     inkscape:cy="54.047619"
     inkscape:window-width="1920"
     inkscape:window-height="1006"
     inkscape:window-x="0"
     inkscape:window-y="0"
     inkscape:window-maximized="1"
     inkscape:current-layer="svg49" />
  <defs
     id="defs11">
    <linearGradient
       id="prefix__a"
       x1="3.36"
       y1="40.61"
       x2="126.63"
       y2="4.38"
       gradientUnits="userSpaceOnUse"
       gradientTransform="matrix(.50667 0 0 .50667 175.716 29.698)">
      <stop
         offset="0"
         stop-color="#0095ff"
         id="stop2" />
      <stop
         offset=".69"
         stop-color="#5c35de"
         id="stop4" />
      <stop
         offset=".99"
         stop-color="#5c00ff"
         id="stop6" />
      <stop
         offset="1"
         stop-color="#5c00ff"
         id="stop8" />
    </linearGradient>
  </defs>
  <g
     fill="#ff9100"
     id="g43"
     transform="matrix(6.8317494,0,0,6.8317494,-391.96108,-293.18697)">
    <path
       d="M 59.231,51.137 A 6.357,6.357 0 0 1 71.93,50.683 c 0.01,-0.151 0.023,-0.301 0.023,-0.454 a 7.27,7.27 0 1 0 -7.27,7.269 c 0.154,0 0.304,-0.013 0.455,-0.023 a 6.357,6.357 0 0 1 -5.907,-6.338 z"
       id="path39" />
    <path
       d="m 69.227,51.682 a 2.363,2.363 0 0 1 -2.363,-2.362 2.361,2.361 0 0 1 1.392,-2.152 4.881,4.881 0 0 0 -2.3,-0.574 4.907,4.907 0 1 0 4.883,4.45 2.351,2.351 0 0 1 -1.612,0.638 z"
       id="path41" />
  </g>
  <text
     xml:space="preserve"
     style="font-style:normal;font-weight:normal;font-size:54.828px;line-height:1;font-family:sans-serif;fill:#e6e6e6;fill-opacity:1;stroke:none;stroke-width:1.3707"
     x="20.642052"
     y="41.180779"
     id="text18029"><tspan
       sodipodi:role="line"
       id="tspan18027"
       x="20.642052"
       y="41.180779"
       style="font-style:normal;font-variant:normal;font-weight:normal;font-stretch:normal;font-family:'Droid Sans';-inkscape-font-specification:'Droid Sans';fill:#e6e6e6;stroke-width:1.3707">S1</tspan><tspan
       sodipodi:role="line"
       x="20.642052"
       y="97.315117"
       id="tspan18097"
       style="font-style:normal;font-variant:normal;font-weight:normal;font-stretch:normal;font-family:'Droid Sans';-inkscape-font-specification:'Droid Sans';fill:#e6e6e6;stroke-width:1.3707">S2</tspan></text>
</svg>
