<svg width="100" height="100" xmlns="http://www.w3.org/2000/svg">
    <g fill="#ff9100">
        <path
            d="M12.69 56.168a43.43 43.43 0 0186.757-3.101c.068-1.032.157-2.057.157-3.102a49.667 49.667 0 10-49.667 49.66c1.052 0 2.077-.089 3.108-.157a43.43 43.43 0 01-40.355-43.3z" />
        <path
            d="M80.98 59.892a16.143 16.143 0 01-16.143-16.137 16.13 16.13 0 019.51-14.702 33.346 33.346 0 00-15.713-3.921 33.523 33.523 0 1033.36 30.4 16.061 16.061 0 01-11.014 4.36z" />
    </g><text style="line-height:1" x="20.642" y="41.181" font-weight="400" font-size="54.828" font-family="sans-serif"
        fill="#e6e6e6" stroke-width="1.371">
        <tspan x="20.642" y="41.181" style="-inkscape-font-specification:'Droid Sans'" font-family="Droid Sans">S1
        </tspan>
        <tspan x="20.642" y="97.315" style="-inkscape-font-specification:'Droid Sans'" font-family="Droid Sans">S2
        </tspan>
    </text>
</svg>